<svg width="172" height="172" viewBox="0 0 172 172" fill="none" xmlns="http://www.w3.org/2000/svg">
<path d="M20.6325 113.958C20.4321 113.959 20.2384 114.03 20.0862 114.16C19.9339 114.29 19.833 114.469 19.8015 114.666L15.0095 144.929C14.992 145.039 14.9987 145.152 15.0293 145.26C15.0598 145.367 15.1133 145.467 15.1862 145.552C15.2592 145.637 15.3497 145.706 15.4517 145.753C15.5537 145.8 15.6646 145.824 15.777 145.824H21.4612C21.6614 145.824 21.855 145.752 22.0073 145.623C22.1595 145.493 22.2605 145.314 22.2923 145.117L23.6989 136.23C23.7306 136.033 23.8317 135.854 23.9839 135.725C24.1362 135.595 24.3297 135.524 24.5299 135.523H29.6962C35.7345 135.523 40.8591 131.138 41.7953 125.193C42.7398 119.199 38.0381 113.971 31.3719 113.958H20.6325ZM26.1576 120.714H30.292C33.6958 120.714 34.8031 122.713 34.4526 124.925C34.1021 127.141 32.3824 128.774 29.0891 128.774H24.881L26.1576 120.714ZM53.3563 122.773C51.9211 122.778 50.2691 123.07 48.4151 123.839C44.1631 125.604 42.1203 129.252 41.2536 131.911C41.2536 131.911 38.4931 140.025 44.7298 144.483C44.7298 144.483 50.5133 148.773 57.025 144.217L56.9133 144.929C56.8958 145.039 56.9026 145.152 56.9331 145.26C56.9636 145.367 57.0171 145.467 57.0901 145.552C57.163 145.637 57.2535 145.706 57.3555 145.753C57.4575 145.8 57.5684 145.824 57.6808 145.824H63.0763C63.4898 145.824 63.8414 145.524 63.9062 145.116L67.1888 124.392C67.2063 124.282 67.1995 124.169 67.169 124.061C67.1385 123.953 67.085 123.854 67.012 123.768C66.9391 123.683 66.8485 123.615 66.7466 123.568C66.6446 123.521 66.5336 123.497 66.4213 123.497H61.0257C60.6111 123.497 60.2594 123.797 60.1947 124.203L60.0189 125.318H60.0177C60.0177 125.318 57.6618 122.757 53.3557 122.773H53.3563ZM53.5327 129.319C54.1523 129.319 54.719 129.403 55.2269 129.566C57.5543 130.311 58.8754 132.536 58.4928 134.95C58.0218 137.923 55.5738 140.113 52.4349 140.113C51.8154 140.113 51.2475 140.028 50.7396 139.866C48.4122 139.121 47.0833 136.894 47.4665 134.48C47.9376 131.508 50.3939 129.319 53.5327 129.319Z" fill="#003087"/>
<path d="M98.3301 113.958C97.9166 113.958 97.565 114.259 97.5002 114.666L92.707 144.929C92.6895 145.039 92.6963 145.152 92.7268 145.26C92.7574 145.368 92.8111 145.468 92.8842 145.553C92.9572 145.638 93.0479 145.706 93.15 145.753C93.2521 145.8 93.3632 145.824 93.4757 145.824H99.1599C99.5734 145.824 99.925 145.524 99.9898 145.117L101.398 136.23C101.429 136.033 101.53 135.854 101.683 135.725C101.835 135.595 102.028 135.524 102.229 135.523H107.395C113.433 135.523 118.558 131.138 119.494 125.193C120.439 119.199 115.736 113.971 109.069 113.958H98.3301ZM103.855 120.714H107.99C111.393 120.714 112.502 122.713 112.151 124.925C111.801 127.141 110.081 128.774 106.787 128.774H102.579L103.855 120.714ZM131.055 122.773C129.62 122.778 127.968 123.07 126.114 123.839C121.862 125.604 119.818 129.252 118.951 131.911C118.951 131.911 116.191 140.025 122.429 144.483C122.429 144.483 128.212 148.773 134.724 144.217L134.611 144.929C134.593 145.039 134.6 145.152 134.631 145.26C134.661 145.368 134.715 145.468 134.788 145.553C134.861 145.638 134.952 145.706 135.054 145.753C135.156 145.8 135.267 145.824 135.38 145.824H140.774C140.974 145.824 141.168 145.752 141.32 145.623C141.473 145.493 141.573 145.313 141.605 145.116L144.888 124.392C144.905 124.282 144.898 124.168 144.868 124.061C144.837 123.953 144.783 123.853 144.71 123.768C144.637 123.683 144.547 123.615 144.444 123.568C144.342 123.521 144.231 123.497 144.119 123.497H138.724C138.31 123.497 137.958 123.797 137.893 124.203L137.717 125.318C137.717 125.318 135.361 122.757 131.055 122.773ZM131.23 129.319C131.85 129.319 132.418 129.403 132.926 129.566C135.253 130.311 136.573 132.536 136.191 134.95C135.72 137.923 133.272 140.113 130.133 140.113C129.514 140.113 128.947 140.028 128.439 139.866C126.112 139.121 124.783 136.894 125.166 134.48C125.636 131.508 128.091 129.319 131.23 129.319Z" fill="#0070E0"/>
<path d="M69.7485 123.497C69.6491 123.497 69.551 123.52 69.4623 123.565C69.3737 123.609 69.297 123.675 69.2385 123.755C69.1799 123.835 69.1413 123.927 69.1256 124.025C69.11 124.123 69.1178 124.223 69.1485 124.317L75.0626 142.594L69.714 151.209C69.455 151.627 69.7562 152.166 70.2504 152.166H76.5703C76.7512 152.166 76.9291 152.119 77.0868 152.031C77.2444 151.943 77.3765 151.815 77.4702 151.661L93.9883 124.448C94.2426 124.03 93.9402 123.495 93.4495 123.495H87.1297C86.9472 123.495 86.7678 123.543 86.6091 123.633C86.4505 123.722 86.3181 123.852 86.225 124.008L79.7228 134.941L76.4218 124.09C76.3137 123.737 75.9875 123.496 75.6163 123.496L69.7485 123.497Z" fill="#003087"/>
<path d="M151.018 113.958C150.605 113.958 150.253 114.259 150.189 114.666L145.395 144.929C145.378 145.039 145.385 145.152 145.415 145.26C145.446 145.368 145.499 145.468 145.572 145.553C145.646 145.638 145.736 145.706 145.838 145.753C145.94 145.8 146.052 145.824 146.164 145.824H151.847C152.261 145.824 152.612 145.524 152.677 145.117L157.471 114.854C157.489 114.743 157.482 114.63 157.451 114.522C157.421 114.414 157.367 114.314 157.294 114.229C157.221 114.144 157.13 114.076 157.027 114.029C156.925 113.982 156.814 113.958 156.701 113.958H151.018Z" fill="#0070E0"/>
<path d="M80.8122 35.9159C79.6794 35.9159 78.7141 36.7363 78.5376 37.8512L74.7567 61.7226L71.2828 83.658L71.2804 83.6764L71.2846 83.658L74.7584 61.7226C74.9349 60.6077 75.899 59.7873 77.0324 59.7873H88.1086C99.2555 59.7873 108.717 51.6892 110.445 40.7158C110.574 39.897 110.647 39.0703 110.663 38.2416V38.2404H110.661C107.829 36.7605 104.502 35.9153 100.857 35.9153L80.8122 35.9159Z" fill="#001C64"/>
<path d="M110.662 38.2404C110.647 39.0554 110.575 39.8817 110.444 40.7157C108.716 51.6891 99.255 59.7872 88.1081 59.7872H77.0319C75.8991 59.7872 74.935 60.6076 74.7579 61.7225L71.2841 83.658L69.104 97.4202C69.062 97.686 69.0784 97.9577 69.152 98.2167C69.2256 98.4756 69.3546 98.7156 69.5302 98.9201C69.7058 99.1247 69.9239 99.2889 70.1693 99.4015C70.4147 99.5142 70.6818 99.5725 70.952 99.5726H82.9745C84.1085 99.5726 85.0726 98.7522 85.2496 97.6373L88.4164 77.6372C88.5021 77.0977 88.7782 76.6063 89.1951 76.2513C89.612 75.8964 90.1424 75.7011 90.6909 75.7006H97.7705C108.917 75.7006 118.378 67.6031 120.105 56.6304C121.332 48.8405 117.395 41.7544 110.662 38.2404Z" fill="#0070E0"/>
<path d="M67.1531 20C66.6046 20.0005 66.0742 20.1957 65.6573 20.5507C65.2404 20.9057 64.9643 21.397 64.8786 21.9365L55.4443 81.5044C55.4021 81.7703 55.4184 82.0422 55.4919 82.3012C55.5653 82.5603 55.6943 82.8005 55.87 83.0051C56.0456 83.2098 56.2637 83.3742 56.5092 83.4869C56.7547 83.5996 57.0219 83.658 57.2923 83.658H71.2828L74.7567 61.7226L78.5377 37.8512C78.7141 36.7362 79.6794 35.9158 80.8122 35.9158H100.856C104.502 35.9158 107.828 36.7617 110.662 38.2398C110.855 28.2495 102.576 20.0006 91.1928 20.0006L67.1531 20Z" fill="#003087"/>
<rect x="1" y="1" width="170" height="170" rx="13" stroke="#D9D9D9" stroke-width="2"/>
</svg>
